<svg version="1.1" id="Layer_1" xmlns="http://www.w3.org/2000/svg" xmlns:xlink="http://www.w3.org/1999/xlink" x="0px" y="0px"
	 width="100%" viewBox="0 0 1259 1266" enable-background="new 0 0 1259 1266" xml:space="preserve">
<path fill="#32C800" opacity="1.000000" stroke="none" 
	d="
M613.000000,0.999999 
	C624.354248,1.000000 635.708435,1.000000 647.717529,1.397502 
	C656.622559,2.195127 664.897888,2.315254 673.117554,3.054602 
	C689.416199,4.520643 705.779480,5.701571 721.940002,8.158281 
	C740.840820,11.031573 759.787537,14.224397 778.288574,18.946732 
	C800.936829,24.727646 823.341980,31.652624 845.490723,39.150761 
	C872.778625,48.388691 898.878174,60.523079 924.372925,73.990997 
	C951.225098,88.175980 977.137878,103.930641 1001.272766,122.267014 
	C1021.842224,137.894684 1041.807983,154.443710 1060.947632,171.791428 
	C1080.539551,189.549118 1098.787476,208.811142 1115.116089,229.704254 
	C1127.335938,245.339722 1139.533813,261.029022 1150.922852,277.268402 
	C1169.457642,303.696564 1185.649170,331.597076 1198.876465,361.053345 
	C1208.195801,381.807037 1217.028564,402.832947 1224.888184,424.175690 
	C1236.360596,455.329346 1245.089233,487.329651 1250.002197,520.233215 
	C1252.962646,540.059631 1255.320679,559.975647 1258.056152,579.836670 
	C1258.300903,581.613342 1259.333374,583.281433 1260.000000,585.000000 
	C1260.000000,585.444458 1260.000000,585.888916 1259.617188,586.830872 
	C1259.489502,590.218933 1259.744751,593.109436 1260.000000,596.000000 
	C1260.000000,621.687561 1260.000000,647.375122 1259.633057,673.673401 
	C1259.510742,676.189392 1259.755371,678.094727 1260.000000,680.000000 
	C1260.000000,680.750000 1260.000000,681.500000 1259.625610,682.773743 
	C1258.834473,684.686157 1258.194336,686.050415 1258.038940,687.467712 
	C1257.289307,694.305359 1256.911743,701.191223 1255.956055,707.997314 
	C1253.784180,723.465515 1252.114868,739.060669 1248.846436,754.305298 
	C1243.833740,777.685364 1238.746094,801.155823 1231.649902,823.952881 
	C1224.565186,846.713196 1215.287109,868.819275 1206.395996,890.981689 
	C1195.145264,919.026245 1180.334106,945.328491 1164.391602,970.885132 
	C1143.648926,1004.136780 1120.015503,1035.360596 1093.255981,1064.030396 
	C1080.234985,1077.981079 1066.547485,1091.418091 1052.211670,1104.005615 
	C1034.910522,1119.196533 1016.843750,1133.551025 998.666382,1147.699829 
	C976.485413,1164.964722 952.475037,1179.579224 927.603271,1192.529785 
	C907.089417,1203.211060 886.124695,1213.268188 864.633789,1221.765869 
	C841.411560,1230.948120 817.606812,1238.915283 793.580872,1245.739014 
	C765.795959,1253.630371 737.426392,1259.368042 708.557312,1261.998047 
	C692.871521,1263.426758 677.167664,1264.656982 661.476562,1266.030029 
	C660.298401,1266.133301 659.157959,1266.666626 658.000000,1267.000000 
	C639.979126,1267.000000 621.958191,1267.000000 603.282715,1266.602661 
	C585.771301,1264.805420 568.879211,1263.730347 552.068665,1261.905151 
	C537.989868,1260.376465 523.811279,1258.842529 510.024445,1255.757690 
	C487.170380,1250.644287 464.374634,1245.011719 441.971893,1238.220459 
	C423.631256,1232.660767 405.485321,1226.018677 387.996857,1218.194092 
	C363.482788,1207.226318 339.159149,1195.618652 315.676849,1182.617920 
	C291.127930,1169.026733 267.720612,1153.383301 245.983536,1135.465454 
	C232.092377,1124.014893 217.765793,1113.020874 204.595016,1100.787720 
	C190.612930,1087.801147 177.290451,1074.018188 164.554962,1059.799316 
	C151.249344,1044.943848 138.637192,1029.427490 126.344818,1013.712891 
	C105.508965,987.076172 87.873970,958.279785 72.291504,928.344055 
	C62.744450,910.003052 54.551800,890.914062 46.516605,871.838501 
	C32.558048,838.700928 22.467213,804.327087 14.906843,769.169067 
	C9.106426,742.195374 4.687135,715.056885 2.923765,687.503479 
	C2.846717,686.299561 1.666400,685.166199 1.000002,684.000000 
	C1.000000,683.250000 1.000000,682.500000 1.379782,681.215088 
	C1.506377,678.120117 1.253188,675.560059 1.000000,673.000000 
	C1.000000,647.645752 1.000000,622.291565 1.387945,596.296875 
	C1.517261,592.437561 1.258631,589.218811 1.000001,586.000000 
	C1.000000,585.555542 1.000000,585.111084 1.385841,584.199341 
	C2.179334,582.882568 2.859969,582.061279 2.951522,581.178955 
	C3.695786,574.006104 4.122283,566.795105 5.040893,559.646606 
	C6.910337,545.098694 8.066049,530.367798 11.255237,516.101074 
	C16.786507,491.357208 23.010771,466.725983 30.087893,442.379913 
	C40.217590,407.532623 54.298229,374.162323 71.485817,342.205933 
	C81.376480,323.816528 91.617569,305.553314 102.847389,287.965332 
	C112.536499,272.790405 123.382744,258.283325 134.564819,244.151505 
	C147.067734,228.350464 160.126617,212.941391 173.700058,198.051361 
	C183.634201,187.153564 194.597137,177.160004 205.459686,167.152145 
	C215.114716,158.256760 225.138412,149.747589 235.219025,141.331024 
	C254.961044,124.847893 276.084656,110.313400 297.789215,96.510078 
	C326.587860,78.195175 356.787811,62.610321 388.208466,49.521915 
	C420.288574,36.158817 453.284760,25.512777 487.260162,17.698095 
	C513.948547,11.559495 540.861755,7.214664 567.993225,4.148831 
	C581.249084,2.650925 594.677551,2.694600 608.023926,1.966905 
	C609.695251,1.875780 611.341919,1.333330 613.000000,0.999999 
M533.998291,1205.496460 
	C543.223267,1206.674194 552.429504,1208.032959 561.677490,1208.988037 
	C576.027527,1210.469849 590.388184,1212.525757 604.775879,1212.826172 
	C636.355225,1213.485352 667.970337,1213.685547 699.367615,1209.027588 
	C709.530823,1207.519897 719.869385,1206.932495 729.895935,1204.822510 
	C748.091125,1200.993774 766.157227,1196.517334 784.196411,1191.989136 
	C815.011475,1184.254150 844.463867,1172.667603 873.190674,1159.279297 
	C905.150696,1144.383911 935.721191,1126.915039 964.002258,1105.843140 
	C982.722961,1091.894531 1000.991150,1077.216797 1018.421692,1061.697144 
	C1032.322754,1049.320190 1044.929810,1035.434937 1057.589844,1021.737244 
	C1067.598267,1010.908386 1077.439941,999.814514 1086.252808,988.014648 
	C1104.852905,963.110535 1122.875488,937.762878 1136.011963,909.356567 
	C1137.037964,907.138000 1139.104126,905.418457 1140.268555,903.243164 
	C1152.586548,880.233582 1163.179810,856.414490 1171.877808,831.838684 
	C1184.918823,794.991821 1195.170410,757.375671 1199.979614,718.469604 
	C1202.206421,700.453796 1205.274414,682.415833 1205.712891,664.333374 
	C1206.442871,634.229858 1207.320435,604.021667 1203.020020,574.018921 
	C1200.591919,557.079895 1199.117188,539.957886 1195.752197,523.211731 
	C1191.903564,504.058105 1187.069458,485.041931 1181.519653,466.304871 
	C1173.209106,438.247803 1162.745117,410.879486 1149.723999,384.676666 
	C1139.855225,364.817169 1129.229004,345.235321 1117.528076,326.407318 
	C1098.034058,295.039459 1075.723877,265.583588 1050.122437,238.943970 
	C1033.050659,221.180069 1014.985413,204.256180 996.313843,188.176651 
	C977.485840,171.962357 957.117310,157.649948 936.037903,144.325012 
	C912.821045,129.648941 888.756653,116.694160 863.784912,105.359253 
	C839.338684,94.262894 814.187500,85.163681 788.401672,77.586349 
	C761.734985,69.750183 734.662659,63.965336 707.211914,60.179420 
	C688.546875,57.605209 669.684082,55.992039 650.857361,55.207378 
	C634.807922,54.538475 618.653870,55.166389 602.600525,56.128696 
	C584.280212,57.226902 565.952454,58.806557 547.754456,61.156525 
	C532.156311,63.170757 516.487122,65.610329 501.296326,69.574638 
	C478.198364,75.602470 455.310333,82.582001 432.660034,90.137314 
	C409.176910,97.970428 386.721191,108.368217 364.808472,119.961853 
	C340.687469,132.723862 317.040833,146.244003 295.446747,162.986481 
	C276.870850,177.388840 257.991821,191.543030 240.633545,207.331543 
	C224.358002,222.135269 209.324448,238.433502 194.812775,255.009460 
	C181.505356,270.209869 168.900375,286.149231 157.268738,302.666382 
	C134.637482,334.803192 115.879456,369.204254 100.225586,405.299530 
	C89.278488,430.541748 80.359352,456.496674 73.149094,482.990265 
	C63.952644,516.782043 58.331131,551.291321 55.109554,586.143799 
	C53.803860,600.269409 53.429893,614.497437 53.093590,628.689758 
	C52.906075,636.603027 53.650913,644.539429 54.004753,652.464111 
	C54.314022,659.390625 54.444431,666.334351 55.042778,673.236816 
	C56.216755,686.779602 57.204441,700.363586 59.105648,713.812256 
	C61.675095,731.987854 64.018242,750.296570 68.311661,768.101318 
	C73.526779,789.728516 80.174294,811.053345 87.106056,832.212830 
	C96.028732,859.449707 107.724571,885.554321 121.303093,910.832642 
	C133.137589,932.864197 146.368546,953.961487 160.681824,974.474365 
	C178.379242,999.837036 198.612900,1023.009155 219.934372,1045.265137 
	C228.260910,1053.956665 237.429138,1061.862549 246.439240,1069.872803 
	C255.509247,1077.936279 264.515839,1086.135254 274.152771,1093.484741 
	C299.839630,1113.074341 326.692322,1130.937378 355.306946,1146.039429 
	C380.387665,1159.276367 406.071320,1171.255249 433.092712,1179.903320 
	C454.917633,1186.887939 477.036621,1193.020386 499.212280,1198.814575 
	C510.332550,1201.720093 521.870117,1203.028564 533.998291,1205.496460 
z"/>
<path fill="#FFFFFF" opacity="1.000000" stroke="none" 
	d="
M612.531372,0.999999 
	C611.341919,1.333330 609.695251,1.875780 608.023926,1.966905 
	C594.677551,2.694600 581.249084,2.650925 567.993225,4.148831 
	C540.861755,7.214664 513.948547,11.559495 487.260162,17.698095 
	C453.284760,25.512777 420.288574,36.158817 388.208466,49.521915 
	C356.787811,62.610321 326.587860,78.195175 297.789215,96.510078 
	C276.084656,110.313400 254.961044,124.847893 235.219025,141.331024 
	C225.138412,149.747589 215.114716,158.256760 205.459686,167.152145 
	C194.597137,177.160004 183.634201,187.153564 173.700058,198.051361 
	C160.126617,212.941391 147.067734,228.350464 134.564819,244.151505 
	C123.382744,258.283325 112.536499,272.790405 102.847389,287.965332 
	C91.617569,305.553314 81.376480,323.816528 71.485817,342.205933 
	C54.298229,374.162323 40.217590,407.532623 30.087893,442.379913 
	C23.010771,466.725983 16.786507,491.357208 11.255237,516.101074 
	C8.066049,530.367798 6.910337,545.098694 5.040893,559.646606 
	C4.122283,566.795105 3.695786,574.006104 2.951522,581.178955 
	C2.859969,582.061279 2.179334,582.882568 1.385841,583.866089 
	C1.000000,389.737793 1.000000,195.475601 1.000000,1.000000 
	C204.687515,1.000000 408.375092,1.000000 612.531372,0.999999 
z"/>
<path fill="#FFFFFF" opacity="1.000000" stroke="none" 
	d="
M1260.000000,584.531372 
	C1259.333374,583.281433 1258.300903,581.613342 1258.056152,579.836670 
	C1255.320679,559.975647 1252.962646,540.059631 1250.002197,520.233215 
	C1245.089233,487.329651 1236.360596,455.329346 1224.888184,424.175690 
	C1217.028564,402.832947 1208.195801,381.807037 1198.876465,361.053345 
	C1185.649170,331.597076 1169.457642,303.696564 1150.922852,277.268402 
	C1139.533813,261.029022 1127.335938,245.339722 1115.116089,229.704254 
	C1098.787476,208.811142 1080.539551,189.549118 1060.947632,171.791428 
	C1041.807983,154.443710 1021.842224,137.894684 1001.272766,122.267014 
	C977.137878,103.930641 951.225098,88.175980 924.372925,73.990997 
	C898.878174,60.523079 872.778625,48.388691 845.490723,39.150761 
	C823.341980,31.652624 800.936829,24.727646 778.288574,18.946732 
	C759.787537,14.224397 740.840820,11.031573 721.940002,8.158281 
	C705.779480,5.701571 689.416199,4.520643 673.117554,3.054602 
	C664.897888,2.315254 656.622559,2.195127 648.186157,1.397502 
	C851.925354,1.000000 1055.850708,1.000000 1260.000000,1.000000 
	C1260.000000,195.354172 1260.000000,389.708435 1260.000000,584.531372 
z"/>
<path fill="#FFFFFF" opacity="1.000000" stroke="none" 
	d="
M658.468628,1267.000000 
	C659.157959,1266.666626 660.298401,1266.133301 661.476562,1266.030029 
	C677.167664,1264.656982 692.871521,1263.426758 708.557312,1261.998047 
	C737.426392,1259.368042 765.795959,1253.630371 793.580872,1245.739014 
	C817.606812,1238.915283 841.411560,1230.948120 864.633789,1221.765869 
	C886.124695,1213.268188 907.089417,1203.211060 927.603271,1192.529785 
	C952.475037,1179.579224 976.485413,1164.964722 998.666382,1147.699829 
	C1016.843750,1133.551025 1034.910522,1119.196533 1052.211670,1104.005615 
	C1066.547485,1091.418091 1080.234985,1077.981079 1093.255981,1064.030396 
	C1120.015503,1035.360596 1143.648926,1004.136780 1164.391602,970.885132 
	C1180.334106,945.328491 1195.145264,919.026245 1206.395996,890.981689 
	C1215.287109,868.819275 1224.565186,846.713196 1231.649902,823.952881 
	C1238.746094,801.155823 1243.833740,777.685364 1248.846436,754.305298 
	C1252.114868,739.060669 1253.784180,723.465515 1255.956055,707.997314 
	C1256.911743,701.191223 1257.289307,694.305359 1258.038940,687.467712 
	C1258.194336,686.050415 1258.834473,684.686157 1259.625610,683.148743 
	C1260.000000,877.594849 1260.000000,1072.189697 1260.000000,1267.000000 
	C1059.645874,1267.000000 859.291565,1267.000000 658.468628,1267.000000 
z"/>
<path fill="#FFFFFF" opacity="1.000000" stroke="none" 
	d="
M1.000002,684.468628 
	C1.666400,685.166199 2.846717,686.299561 2.923765,687.503479 
	C4.687135,715.056885 9.106426,742.195374 14.906843,769.169067 
	C22.467213,804.327087 32.558048,838.700928 46.516605,871.838501 
	C54.551800,890.914062 62.744450,910.003052 72.291504,928.344055 
	C87.873970,958.279785 105.508965,987.076172 126.344818,1013.712891 
	C138.637192,1029.427490 151.249344,1044.943848 164.554962,1059.799316 
	C177.290451,1074.018188 190.612930,1087.801147 204.595016,1100.787720 
	C217.765793,1113.020874 232.092377,1124.014893 245.983536,1135.465454 
	C267.720612,1153.383301 291.127930,1169.026733 315.676849,1182.617920 
	C339.159149,1195.618652 363.482788,1207.226318 387.996857,1218.194092 
	C405.485321,1226.018677 423.631256,1232.660767 441.971893,1238.220459 
	C464.374634,1245.011719 487.170380,1250.644287 510.024445,1255.757690 
	C523.811279,1258.842529 537.989868,1260.376465 552.068665,1261.905151 
	C568.879211,1263.730347 585.771301,1264.805420 602.814026,1266.602661 
	C402.407410,1267.000000 201.814804,1267.000000 1.000000,1267.000000 
	C1.000000,1072.979126 1.000000,878.958252 1.000002,684.468628 
z"/>
<path fill="#FFFFFF" opacity="1.000000" stroke="none" 
	d="
M1.000001,586.454102 
	C1.258631,589.218811 1.517261,592.437561 1.387945,595.828186 
	C1.000000,592.969421 1.000000,589.938782 1.000001,586.454102 
z"/>
<path fill="#FFFFFF" opacity="1.000000" stroke="none" 
	d="
M1260.000000,595.550171 
	C1259.744751,593.109436 1259.489502,590.218933 1259.617188,587.164185 
	C1260.000000,589.700134 1260.000000,592.400208 1260.000000,595.550171 
z"/>
<path fill="#FFFFFF" opacity="1.000000" stroke="none" 
	d="
M1.000000,673.444153 
	C1.253188,675.560059 1.506377,678.120117 1.379782,680.840088 
	C1.000000,678.629456 1.000000,676.258850 1.000000,673.444153 
z"/>
<path fill="#FFFFFF" opacity="1.000000" stroke="none" 
	d="
M1260.000000,679.571533 
	C1259.755371,678.094727 1259.510742,676.189392 1259.633057,674.142090 
	C1260.000000,675.714355 1260.000000,677.428711 1260.000000,679.571533 
z"/>
<path fill="#FFFFFF" opacity="1.000000" stroke="none" 
	d="
M533.608643,1205.277832 
	C521.870117,1203.028564 510.332550,1201.720093 499.212280,1198.814575 
	C477.036621,1193.020386 454.917633,1186.887939 433.092712,1179.903320 
	C406.071320,1171.255249 380.387665,1159.276367 355.306946,1146.039429 
	C326.692322,1130.937378 299.839630,1113.074341 274.152771,1093.484741 
	C264.515839,1086.135254 255.509247,1077.936279 246.439240,1069.872803 
	C237.429138,1061.862549 228.260910,1053.956665 219.934372,1045.265137 
	C198.612900,1023.009155 178.379242,999.837036 160.681824,974.474365 
	C146.368546,953.961487 133.137589,932.864197 121.303093,910.832642 
	C107.724571,885.554321 96.028732,859.449707 87.106056,832.212830 
	C80.174294,811.053345 73.526779,789.728516 68.311661,768.101318 
	C64.018242,750.296570 61.675095,731.987854 59.105648,713.812256 
	C57.204441,700.363586 56.216755,686.779602 55.042778,673.236816 
	C54.444431,666.334351 54.314022,659.390625 54.004753,652.464111 
	C53.650913,644.539429 52.906075,636.603027 53.093590,628.689758 
	C53.429893,614.497437 53.803860,600.269409 55.109554,586.143799 
	C58.331131,551.291321 63.952644,516.782043 73.149094,482.990265 
	C80.359352,456.496674 89.278488,430.541748 100.225586,405.299530 
	C115.879456,369.204254 134.637482,334.803192 157.268738,302.666382 
	C168.900375,286.149231 181.505356,270.209869 194.812775,255.009460 
	C209.324448,238.433502 224.358002,222.135269 240.633545,207.331543 
	C257.991821,191.543030 276.870850,177.388840 295.446747,162.986481 
	C317.040833,146.244003 340.687469,132.723862 364.808472,119.961853 
	C386.721191,108.368217 409.176910,97.970428 432.660034,90.137314 
	C455.310333,82.582001 478.198364,75.602470 501.296326,69.574638 
	C516.487122,65.610329 532.156311,63.170757 547.754456,61.156525 
	C565.952454,58.806557 584.280212,57.226902 602.600525,56.128696 
	C618.653870,55.166389 634.807922,54.538475 650.857361,55.207378 
	C669.684082,55.992039 688.546875,57.605209 707.211914,60.179420 
	C734.662659,63.965336 761.734985,69.750183 788.401672,77.586349 
	C814.187500,85.163681 839.338684,94.262894 863.784912,105.359253 
	C888.756653,116.694160 912.821045,129.648941 936.037903,144.325012 
	C957.117310,157.649948 977.485840,171.962357 996.313843,188.176651 
	C1014.985413,204.256180 1033.050659,221.180069 1050.122437,238.943970 
	C1075.723877,265.583588 1098.034058,295.039459 1117.528076,326.407318 
	C1129.229004,345.235321 1139.855225,364.817169 1149.723999,384.676666 
	C1162.745117,410.879486 1173.209106,438.247803 1181.519653,466.304871 
	C1187.069458,485.041931 1191.903564,504.058105 1195.752197,523.211731 
	C1199.117188,539.957886 1200.591919,557.079895 1203.020020,574.018921 
	C1207.320435,604.021667 1206.442871,634.229858 1205.712891,664.333374 
	C1205.274414,682.415833 1202.206421,700.453796 1199.979614,718.469604 
	C1195.170410,757.375671 1184.918823,794.991821 1171.877808,831.838684 
	C1163.179810,856.414490 1152.586548,880.233582 1140.268555,903.243164 
	C1139.104126,905.418457 1137.037964,907.138000 1136.011963,909.356567 
	C1122.875488,937.762878 1104.852905,963.110535 1086.252808,988.014648 
	C1077.439941,999.814514 1067.598267,1010.908386 1057.589844,1021.737244 
	C1044.929810,1035.434937 1032.322754,1049.320190 1018.421692,1061.697144 
	C1000.991150,1077.216797 982.722961,1091.894531 964.002258,1105.843140 
	C935.721191,1126.915039 905.150696,1144.383911 873.190674,1159.279297 
	C844.463867,1172.667603 815.011475,1184.254150 784.196411,1191.989136 
	C766.157227,1196.517334 748.091125,1200.993774 729.895935,1204.822510 
	C719.869385,1206.932495 709.530823,1207.519897 699.367615,1209.027588 
	C667.970337,1213.685547 636.355225,1213.485352 604.775879,1212.826172 
	C590.388184,1212.525757 576.027527,1210.469849 561.677490,1208.988037 
	C552.429504,1208.032959 543.223267,1206.674194 533.608643,1205.277832 
M222.007019,333.488586 
	C212.883270,341.246674 203.804474,349.058441 194.620728,356.744843 
	C187.985580,362.298248 181.139328,367.599823 174.517059,373.168121 
	C166.610077,379.816650 158.841599,386.629852 150.826904,393.532135 
	C193.960892,444.944031 236.922104,496.149994 280.437775,548.016846 
	C293.914856,494.771606 317.727844,447.979218 351.454895,406.098145 
	C353.875214,408.823700 356.334900,411.452637 358.638397,414.211975 
	C368.391846,425.895508 378.062500,437.648254 387.834595,449.316132 
	C395.414917,458.367126 403.148682,467.289581 410.727661,476.341675 
	C420.391357,487.883789 429.932404,499.528595 439.594879,511.071777 
	C445.597961,518.243286 451.786896,525.259216 457.787659,532.432678 
	C467.339966,543.851562 476.756714,555.384033 486.321808,566.792114 
	C494.013885,575.966309 501.899017,584.978638 509.593201,594.151123 
	C519.374207,605.811401 529.010132,617.593262 538.781799,629.261414 
	C546.361877,638.312622 554.105225,647.227112 561.683899,656.279480 
	C571.347168,667.821899 580.876099,679.476746 590.541443,691.017395 
	C598.228394,700.195679 606.082703,709.233643 613.773071,718.409119 
	C623.442810,729.946167 633.025879,741.555786 642.637207,753.141724 
	C648.797180,760.567200 654.978271,767.975586 661.081604,775.447388 
	C668.402893,784.410095 675.554199,793.513306 682.958557,802.406250 
	C690.724976,811.734070 698.764526,820.834045 706.574890,830.125854 
	C716.474731,841.903015 726.232239,853.799683 736.111145,865.594604 
	C743.585083,874.518127 751.196045,883.326904 758.668274,892.251892 
	C768.438354,903.921509 778.120972,915.664185 787.861633,927.358398 
	C794.966553,935.888245 802.104370,944.390625 809.469116,953.194031 
	C796.462830,959.912781 784.245728,967.302368 771.199036,972.678833 
	C756.341736,978.801270 741.260986,984.580383 725.106995,987.125122 
	C712.720032,989.076416 700.641968,992.922058 688.292542,995.198364 
	C678.355469,997.030090 668.244385,998.124146 658.160645,998.885620 
	C650.520325,999.462585 642.798828,999.129211 635.118469,998.966248 
	C626.189758,998.776794 617.265015,998.367432 608.341492,997.984558 
	C602.084229,997.716125 595.819214,997.481567 589.581238,996.953796 
	C584.384155,996.514099 579.134033,994.737793 574.062988,995.213257 
	C565.531494,996.013123 557.130859,998.170593 548.661804,999.682251 
	C536.668640,1001.822998 524.663208,1003.895752 512.663147,1005.998047 
	C500.025085,1008.212158 487.388062,1010.432251 474.748871,1012.639954 
	C460.668884,1015.099426 446.584320,1017.532837 432.506622,1020.005493 
	C420.350555,1022.140564 408.201477,1024.315552 396.049072,1026.471680 
	C385.656128,1028.315430 375.262787,1030.157104 364.869720,1032.000366 
	C355.374176,1033.684448 345.878845,1035.369751 335.200195,1037.264404 
	C339.745483,1040.629272 343.288116,1043.438354 347.013489,1045.979614 
	C371.679260,1062.805176 397.079865,1078.383911 424.600281,1090.165039 
	C439.885498,1096.708252 455.173645,1103.348022 470.832794,1108.892578 
	C500.978424,1119.566772 531.900269,1127.360840 563.751404,1131.009888 
	C579.357910,1132.797852 594.960449,1135.187256 610.622192,1135.774414 
	C628.010132,1136.426270 645.483704,1135.740601 662.882202,1134.876343 
	C677.774109,1134.136841 692.755676,1133.189087 707.438782,1130.765381 
	C726.108765,1127.683472 744.583618,1123.301636 763.024353,1118.975952 
	C793.824463,1111.751221 823.148865,1100.223267 851.604858,1086.630493 
	C876.209412,1074.877319 899.563477,1060.893677 921.880920,1045.115356 
	C942.791016,1030.331787 962.392151,1014.042053 980.963623,996.480408 
	C992.825806,985.263184 1004.112976,973.422241 1016.226990,962.491638 
	C1027.517090,952.304504 1039.592163,942.990356 1051.260620,933.218811 
	C1060.311890,925.638916 1069.216797,917.883850 1078.281250,910.319824 
	C1089.456909,900.994141 1100.716309,891.768433 1111.973022,882.540344 
	C1114.478638,880.486267 1114.397827,878.901062 1112.103516,876.482483 
	C1107.245483,871.361328 1102.692261,865.940186 1098.178955,860.505005 
	C1089.197876,849.689514 1080.379517,838.738770 1071.394409,827.926758 
	C1065.416992,820.734192 1059.212158,813.731201 1053.206787,806.561584 
	C1043.540771,795.021362 1033.950684,783.417480 1024.337769,771.832886 
	C1018.176453,764.407776 1012.075317,756.932251 1005.867615,749.546265 
	C999.550415,742.030029 993.135559,734.595825 986.209229,726.475952 
	C972.332703,779.131653 948.502930,825.817993 914.008728,867.618408 
	C910.144592,863.308044 906.534912,859.501099 903.172852,855.486816 
	C895.509155,846.335938 888.035400,837.025696 880.355957,827.888184 
	C872.439758,818.468811 864.304138,809.233826 856.386536,799.815491 
	C846.593079,788.165771 836.963013,776.378784 827.191162,764.710693 
	C819.611145,755.659607 811.877991,746.736694 804.293396,737.689453 
	C796.305359,728.160889 788.457214,718.515076 780.466125,708.989136 
	C772.771851,699.817078 764.923279,690.774292 757.233032,681.598938 
	C747.563232,670.061829 738.018860,658.419678 728.355713,646.877014 
	C722.352295,639.705933 716.169800,632.684692 710.174316,625.507141 
	C702.522217,616.346375 695.046936,607.037598 687.367554,597.900024 
	C679.451294,588.480652 671.313538,579.247437 663.396057,569.829102 
	C653.602722,558.179321 643.974365,546.390808 634.202759,534.722656 
	C626.622742,525.671387 618.878235,516.757812 611.304382,507.701538 
	C601.753723,496.281403 592.354431,484.734497 582.791504,473.324768 
	C575.101135,464.149109 567.184326,455.162903 559.511475,445.972931 
	C548.397522,432.661438 537.494141,419.173767 526.348694,405.888947 
	C516.543457,394.201630 506.466095,382.742920 496.624603,371.085571 
	C486.592896,359.202911 476.687103,347.213776 466.757111,335.245605 
	C462.441986,330.044739 458.204132,324.779755 453.660919,319.212738 
	C461.332458,315.318726 468.329285,311.618866 475.451508,308.178680 
	C500.728119,295.969574 527.020935,286.788635 554.475037,280.681702 
	C577.555298,275.547638 600.788879,272.329071 624.416992,272.021271 
	C634.247681,271.893188 644.088806,271.771362 653.911255,272.084503 
	C659.942749,272.276794 665.945740,273.319305 671.965454,273.941864 
	C678.808228,274.649536 685.713318,276.210236 692.486023,275.772369 
	C701.026611,275.220276 709.460144,273.017639 717.941162,271.534729 
	C730.420593,269.352722 742.902100,267.182953 755.380981,264.997864 
	C767.541321,262.868469 779.705383,260.759491 791.856995,258.581024 
	C805.757141,256.089111 819.638123,253.489868 833.540894,251.012909 
	C846.014282,248.790604 858.506226,246.672546 870.989441,244.505600 
	C883.472351,242.338730 895.960938,240.204178 908.434692,237.985855 
	C915.978638,236.644241 923.499084,235.170319 931.543945,233.659317 
	C927.824951,230.367050 925.012207,227.302750 921.660522,225.035065 
	C915.547852,220.899277 909.123718,217.222656 902.815430,213.377487 
	C888.938416,204.918839 875.528809,195.528397 861.059082,188.245483 
	C839.181030,177.233810 817.095825,166.545410 792.920959,160.832520 
	C779.076172,157.560791 765.785339,152.008636 752.057922,148.148712 
	C745.556091,146.320480 738.964417,144.919434 731.912659,144.565063 
	C718.993408,143.915863 706.237549,140.544312 693.326050,139.078445 
	C677.676575,137.301727 661.956848,135.879120 646.228333,135.155670 
	C635.673645,134.670197 625.031250,135.368988 614.463074,136.066818 
	C598.248840,137.137497 581.990723,138.088654 565.888794,140.160141 
	C550.286621,142.167328 534.705383,144.868408 519.386414,148.431534 
	C491.041290,155.024506 463.350616,163.802032 436.684937,175.663208 
	C411.055786,187.063354 385.691254,198.949722 362.564728,215.003555 
	C346.190582,226.370056 329.997498,238.001099 313.854675,249.695023 
	C308.439514,253.617813 303.101776,257.759949 298.298492,262.392639 
	C286.630890,273.645966 275.283661,285.232056 263.851288,296.727722 
	C262.698608,297.886780 262.048157,299.581848 260.822052,300.625671 
	C248.096420,311.459259 235.300461,322.210236 222.007019,333.488586 
z"/>
<path fill="#32C800" opacity="1.000000" stroke="none" 
	d="
M222.265533,333.236389 
	C235.300461,322.210236 248.096420,311.459259 260.822052,300.625671 
	C262.048157,299.581848 262.698608,297.886780 263.851288,296.727722 
	C275.283661,285.232056 286.630890,273.645966 298.298492,262.392639 
	C303.101776,257.759949 308.439514,253.617813 313.854675,249.695023 
	C329.997498,238.001099 346.190582,226.370056 362.564728,215.003555 
	C385.691254,198.949722 411.055786,187.063354 436.684937,175.663208 
	C463.350616,163.802032 491.041290,155.024506 519.386414,148.431534 
	C534.705383,144.868408 550.286621,142.167328 565.888794,140.160141 
	C581.990723,138.088654 598.248840,137.137497 614.463074,136.066818 
	C625.031250,135.368988 635.673645,134.670197 646.228333,135.155670 
	C661.956848,135.879120 677.676575,137.301727 693.326050,139.078445 
	C706.237549,140.544312 718.993408,143.915863 731.912659,144.565063 
	C738.964417,144.919434 745.556091,146.320480 752.057922,148.148712 
	C765.785339,152.008636 779.076172,157.560791 792.920959,160.832520 
	C817.095825,166.545410 839.181030,177.233810 861.059082,188.245483 
	C875.528809,195.528397 888.938416,204.918839 902.815430,213.377487 
	C909.123718,217.222656 915.547852,220.899277 921.660522,225.035065 
	C925.012207,227.302750 927.824951,230.367050 931.543945,233.659317 
	C923.499084,235.170319 915.978638,236.644241 908.434692,237.985855 
	C895.960938,240.204178 883.472351,242.338730 870.989441,244.505600 
	C858.506226,246.672546 846.014282,248.790604 833.540894,251.012909 
	C819.638123,253.489868 805.757141,256.089111 791.856995,258.581024 
	C779.705383,260.759491 767.541321,262.868469 755.380981,264.997864 
	C742.902100,267.182953 730.420593,269.352722 717.941162,271.534729 
	C709.460144,273.017639 701.026611,275.220276 692.486023,275.772369 
	C685.713318,276.210236 678.808228,274.649536 671.965454,273.941864 
	C665.945740,273.319305 659.942749,272.276794 653.911255,272.084503 
	C644.088806,271.771362 634.247681,271.893188 624.416992,272.021271 
	C600.788879,272.329071 577.555298,275.547638 554.475037,280.681702 
	C527.020935,286.788635 500.728119,295.969574 475.451508,308.178680 
	C468.329285,311.618866 461.332458,315.318726 453.660919,319.212738 
	C458.204132,324.779755 462.441986,330.044739 466.757111,335.245605 
	C476.687103,347.213776 486.592896,359.202911 496.624603,371.085571 
	C506.466095,382.742920 516.543457,394.201630 526.348694,405.888947 
	C537.494141,419.173767 548.397522,432.661438 559.511475,445.972931 
	C567.184326,455.162903 575.101135,464.149109 582.791504,473.324768 
	C592.354431,484.734497 601.753723,496.281403 611.304382,507.701538 
	C618.878235,516.757812 626.622742,525.671387 634.202759,534.722656 
	C643.974365,546.390808 653.602722,558.179321 663.396057,569.829102 
	C671.313538,579.247437 679.451294,588.480652 687.367554,597.900024 
	C695.046936,607.037598 702.522217,616.346375 710.174316,625.507141 
	C716.169800,632.684692 722.352295,639.705933 728.355713,646.877014 
	C738.018860,658.419678 747.563232,670.061829 757.233032,681.598938 
	C764.923279,690.774292 772.771851,699.817078 780.466125,708.989136 
	C788.457214,718.515076 796.305359,728.160889 804.293396,737.689453 
	C811.877991,746.736694 819.611145,755.659607 827.191162,764.710693 
	C836.963013,776.378784 846.593079,788.165771 856.386536,799.815491 
	C864.304138,809.233826 872.439758,818.468811 880.355957,827.888184 
	C888.035400,837.025696 895.509155,846.335938 903.172852,855.486816 
	C906.534912,859.501099 910.144592,863.308044 914.008728,867.618408 
	C948.502930,825.817993 972.332703,779.131653 986.209229,726.475952 
	C993.135559,734.595825 999.550415,742.030029 1005.867615,749.546265 
	C1012.075317,756.932251 1018.176453,764.407776 1024.337769,771.832886 
	C1033.950684,783.417480 1043.540771,795.021362 1053.206787,806.561584 
	C1059.212158,813.731201 1065.416992,820.734192 1071.394409,827.926758 
	C1080.379517,838.738770 1089.197876,849.689514 1098.178955,860.505005 
	C1102.692261,865.940186 1107.245483,871.361328 1112.103516,876.482483 
	C1114.397827,878.901062 1114.478638,880.486267 1111.973022,882.540344 
	C1100.716309,891.768433 1089.456909,900.994141 1078.281250,910.319824 
	C1069.216797,917.883850 1060.311890,925.638916 1051.260620,933.218811 
	C1039.592163,942.990356 1027.517090,952.304504 1016.226990,962.491638 
	C1004.112976,973.422241 992.825806,985.263184 980.963623,996.480408 
	C962.392151,1014.042053 942.791016,1030.331787 921.880920,1045.115356 
	C899.563477,1060.893677 876.209412,1074.877319 851.604858,1086.630493 
	C823.148865,1100.223267 793.824463,1111.751221 763.024353,1118.975952 
	C744.583618,1123.301636 726.108765,1127.683472 707.438782,1130.765381 
	C692.755676,1133.189087 677.774109,1134.136841 662.882202,1134.876343 
	C645.483704,1135.740601 628.010132,1136.426270 610.622192,1135.774414 
	C594.960449,1135.187256 579.357910,1132.797852 563.751404,1131.009888 
	C531.900269,1127.360840 500.978424,1119.566772 470.832794,1108.892578 
	C455.173645,1103.348022 439.885498,1096.708252 424.600281,1090.165039 
	C397.079865,1078.383911 371.679260,1062.805176 347.013489,1045.979614 
	C343.288116,1043.438354 339.745483,1040.629272 335.200195,1037.264404 
	C345.878845,1035.369751 355.374176,1033.684448 364.869720,1032.000366 
	C375.262787,1030.157104 385.656128,1028.315430 396.049072,1026.471680 
	C408.201477,1024.315552 420.350555,1022.140564 432.506622,1020.005493 
	C446.584320,1017.532837 460.668884,1015.099426 474.748871,1012.639954 
	C487.388062,1010.432251 500.025085,1008.212158 512.663147,1005.998047 
	C524.663208,1003.895752 536.668640,1001.822998 548.661804,999.682251 
	C557.130859,998.170593 565.531494,996.013123 574.062988,995.213257 
	C579.134033,994.737793 584.384155,996.514099 589.581238,996.953796 
	C595.819214,997.481567 602.084229,997.716125 608.341492,997.984558 
	C617.265015,998.367432 626.189758,998.776794 635.118469,998.966248 
	C642.798828,999.129211 650.520325,999.462585 658.160645,998.885620 
	C668.244385,998.124146 678.355469,997.030090 688.292542,995.198364 
	C700.641968,992.922058 712.720032,989.076416 725.106995,987.125122 
	C741.260986,984.580383 756.341736,978.801270 771.199036,972.678833 
	C784.245728,967.302368 796.462830,959.912781 809.469116,953.194031 
	C802.104370,944.390625 794.966553,935.888245 787.861633,927.358398 
	C778.120972,915.664185 768.438354,903.921509 758.668274,892.251892 
	C751.196045,883.326904 743.585083,874.518127 736.111145,865.594604 
	C726.232239,853.799683 716.474731,841.903015 706.574890,830.125854 
	C698.764526,820.834045 690.724976,811.734070 682.958557,802.406250 
	C675.554199,793.513306 668.402893,784.410095 661.081604,775.447388 
	C654.978271,767.975586 648.797180,760.567200 642.637207,753.141724 
	C633.025879,741.555786 623.442810,729.946167 613.773071,718.409119 
	C606.082703,709.233643 598.228394,700.195679 590.541443,691.017395 
	C580.876099,679.476746 571.347168,667.821899 561.683899,656.279480 
	C554.105225,647.227112 546.361877,638.312622 538.781799,629.261414 
	C529.010132,617.593262 519.374207,605.811401 509.593201,594.151123 
	C501.899017,584.978638 494.013885,575.966309 486.321808,566.792114 
	C476.756714,555.384033 467.339966,543.851562 457.787659,532.432678 
	C451.786896,525.259216 445.597961,518.243286 439.594879,511.071777 
	C429.932404,499.528595 420.391357,487.883789 410.727661,476.341675 
	C403.148682,467.289581 395.414917,458.367126 387.834595,449.316132 
	C378.062500,437.648254 368.391846,425.895508 358.638397,414.211975 
	C356.334900,411.452637 353.875214,408.823700 351.454895,406.098145 
	C317.727844,447.979218 293.914856,494.771606 280.437775,548.016846 
	C236.922104,496.149994 193.960892,444.944031 150.826904,393.532135 
	C158.841599,386.629852 166.610077,379.816650 174.517059,373.168121 
	C181.139328,367.599823 187.985580,362.298248 194.620728,356.744843 
	C203.804474,349.058441 212.883270,341.246674 222.265533,333.236389 
z"/>
</svg>